<svg width="17" height="17" viewBox="0 0 17 17" fill="none" xmlns="http://www.w3.org/2000/svg">
<g id="bi:exclamation-circle-fill" opacity="0.8" clip-path="url(#clip0_2_231)">
<g id="Group">
<path id="Vector" d="M16.6909 8.43176C16.6909 10.5535 15.8481 12.5883 14.3478 14.0886C12.8475 15.5889 10.8126 16.4318 8.69092 16.4318C6.56919 16.4318 4.53435 15.5889 3.03406 14.0886C1.53377 12.5883 0.690918 10.5535 0.690918 8.43176C0.690918 6.31003 1.53377 4.2752 3.03406 2.77491C4.53435 1.27462 6.56919 0.431763 8.69092 0.431763C10.8126 0.431763 12.8475 1.27462 14.3478 2.77491C15.8481 4.2752 16.6909 6.31003 16.6909 8.43176ZM8.69092 4.43176C8.56453 4.43183 8.43955 4.45838 8.32404 4.50969C8.20853 4.561 8.10505 4.63594 8.02026 4.72967C7.93548 4.82341 7.87126 4.93387 7.83176 5.05393C7.79226 5.17399 7.77835 5.301 7.79092 5.42676L8.14092 8.93376C8.15268 9.07153 8.21572 9.19988 8.31756 9.2934C8.41941 9.38692 8.55265 9.43882 8.69092 9.43882C8.82919 9.43882 8.96243 9.38692 9.06427 9.2934C9.16612 9.19988 9.22916 9.07153 9.24092 8.93376L9.59092 5.42676C9.60349 5.301 9.58957 5.17399 9.55007 5.05393C9.51057 4.93387 9.44636 4.82341 9.36157 4.72967C9.27679 4.63594 9.17331 4.561 9.0578 4.50969C8.94229 4.45838 8.81731 4.43183 8.69092 4.43176ZM8.69292 10.4318C8.4277 10.4318 8.17335 10.5371 7.98581 10.7247C7.79827 10.9122 7.69292 11.1665 7.69292 11.4318C7.69292 11.697 7.79827 11.9513 7.98581 12.1389C8.17335 12.3264 8.4277 12.4318 8.69292 12.4318C8.95813 12.4318 9.21249 12.3264 9.40002 12.1389C9.58756 11.9513 9.69292 11.697 9.69292 11.4318C9.69292 11.1665 9.58756 10.9122 9.40002 10.7247C9.21249 10.5371 8.95813 10.4318 8.69292 10.4318Z" fill="#868E96"/>
</g>
</g>
<defs>
<clipPath id="clip0_2_231">
<rect width="16" height="16" fill="white" transform="translate(0.690918 0.431763)"/>
</clipPath>
</defs>
</svg>
